<?xml version="1.0" encoding="UTF-8" standalone="no"?>
<!DOCTYPE svg PUBLIC "-//W3C//DTD SVG 1.1//EN" "http://www.w3.org/Graphics/SVG/1.1/DTD/svg11.dtd">
<svg version="1.1" xmlns="http://www.w3.org/2000/svg" xmlns:xlink="http://www.w3.org/1999/xlink" preserveAspectRatio="xMidYMid meet" viewBox="0 0 640 640" width="640" height="640"><defs><path d="M116.46 439.12L324.91 563.47L531.28 436.62L117.97 201.3L116.46 439.12Z" id="a1xsUeuUkh"></path><path d="M99.82 399.79L135.53 399.92L136.12 237.09L100.41 236.97L99.82 399.79Z" id="aU2v71b0D"></path><path d="M279.66 81.32L297.9 112.02L157.93 195.21L139.68 164.52L279.66 81.32Z" id="a1oxNUPwSg"></path><path d="M163.96 199.88C163.96 226.1 142.68 247.38 116.46 247.38C90.25 247.38 68.96 226.1 68.96 199.88C68.96 173.67 90.25 152.38 116.46 152.38C142.68 152.38 163.96 173.67 163.96 199.88Z" id="bgCgqx02I"></path><path d="M488.1 193.37L506.35 162.67L366.37 79.48L348.13 110.17L488.1 193.37Z" id="a1b5B4UN4h"></path><path d="M370.85 85.53C370.85 111.75 349.57 133.03 323.35 133.03C297.14 133.03 275.85 111.75 275.85 85.53C275.85 59.32 297.14 38.03 323.35 38.03C349.57 38.03 370.85 59.32 370.85 85.53Z" id="b1jl2NH3uG"></path><path d="M496.39 449.35L514.64 480.05L369.7 566.2L351.45 535.5L496.39 449.35Z" id="b4LPJ95Qbh"></path><path d="M513.13 399.79L548.84 399.92L549.43 237.09L513.72 236.97L513.13 399.79Z" id="a4q4vX1jri"></path><path d="M578.78 198.64C578.78 224.86 557.5 246.14 531.28 246.14C505.07 246.14 483.78 224.86 483.78 198.64C483.78 172.42 505.07 151.14 531.28 151.14C557.5 151.14 578.78 172.42 578.78 198.64Z" id="hBqTsY55W"></path><path d="M578.78 436.62C578.78 462.84 557.5 484.12 531.28 484.12C505.07 484.12 483.78 462.84 483.78 436.62C483.78 410.4 505.07 389.12 531.28 389.12C557.5 389.12 578.78 410.4 578.78 436.62Z" id="a3PQHvhMi"></path><path d="M148.92 444.57L130.67 475.26L282.5 565.5L300.75 534.81L148.92 444.57Z" id="d88xop7l1j"></path><path d="M163.96 435.27C163.96 461.49 142.68 482.77 116.46 482.77C90.25 482.77 68.96 461.49 68.96 435.27C68.96 409.06 90.25 387.77 116.46 387.77C142.68 387.77 163.96 409.06 163.96 435.27Z" id="bdLYOtrjH"></path><path d="M372.41 559.78C372.41 586 351.13 607.28 324.91 607.28C298.69 607.28 277.41 586 277.41 559.78C277.41 533.56 298.69 512.28 324.91 512.28C351.13 512.28 372.41 533.56 372.41 559.78Z" id="d7VX1gXyqE"></path><path d="M282.33 385.91C281.31 382.4 281.21 380.56 280.85 362.23C280.39 340.27 280.19 338.59 277.13 335.13C275.09 332.84 272.34 331.56 268.27 331.1C268.05 331.08 266.98 330.96 265.06 330.75L265.06 319.95L265.06 309.15C267.01 309 268.1 308.91 268.32 308.9C272.55 308.54 275.96 306.91 277.59 304.41C280.24 300.44 280.44 298.96 280.85 277.42C281.26 255.26 281.36 254.49 284.72 247.47C285.89 245.07 287.52 242.73 289.41 240.84C294.5 235.7 300 233.61 308.2 233.61C308.52 233.61 310.1 233.61 312.94 233.61L312.94 243.24L312.94 252.81C311.38 253 310.51 253.1 310.34 253.12C305.91 253.68 302.85 256.48 301.12 261.73C300.82 262.7 300.41 271.05 300.2 281.75C299.75 301.36 299.39 304.41 296.94 309.86C296.23 311.39 294.96 313.53 294.09 314.6C292.36 316.79 288.49 319.44 286.2 320C286.1 320.02 285.61 320.14 284.72 320.36C285.85 320.75 286.48 320.97 286.6 321.02C290.88 322.5 294.96 326.57 297.1 331.51C299.49 337.06 299.85 340.48 300.2 359.43C300.41 369.46 300.77 378.22 301.07 379.09C302.7 383.93 304.79 385.76 309.63 386.58C309.85 386.61 310.95 386.8 312.94 387.14L312.94 396.71L312.94 406.29C310.13 406.26 308.57 406.24 308.25 406.24C305.66 406.24 302.24 405.88 300.71 405.47C291.7 403.08 285.43 396.36 282.33 385.91Z" id="anphSwA3B"></path><path d="M337.9 387.24C339.88 386.9 340.99 386.71 341.21 386.68C346.05 385.86 348.14 384.03 349.77 379.19C350.07 378.32 350.43 369.56 350.63 359.53C350.99 340.58 351.35 337.17 353.74 331.61C355.88 326.67 359.95 322.6 364.23 321.12C364.36 321.08 364.99 320.86 366.12 320.46C365.23 320.24 364.74 320.13 364.64 320.1C362.35 319.54 358.48 316.89 356.75 314.7C355.88 313.63 354.61 311.49 353.89 309.97C351.45 304.52 351.09 301.46 350.63 281.85C350.43 271.15 350.02 262.8 349.72 261.83C347.98 256.58 344.93 253.78 340.5 253.22C340.32 253.2 339.46 253.1 337.9 252.92L337.9 243.34L337.9 233.71C340.74 233.71 342.32 233.71 342.64 233.71C350.84 233.71 356.34 235.8 361.43 240.95C363.32 242.83 364.95 245.17 366.12 247.57C369.48 254.6 369.58 255.36 369.99 277.52C370.4 299.06 370.6 300.54 373.25 304.52C374.88 307.01 378.29 308.64 382.52 309C382.74 309.01 383.82 309.1 385.78 309.25L385.78 320.05L385.78 330.85C383.88 331.06 382.83 331.18 382.62 331.21C378.5 331.66 375.74 332.94 373.71 335.23C370.65 338.69 370.45 340.38 369.99 362.33C369.63 380.67 369.53 382.5 368.51 386.02C366.78 391.87 364.18 396.3 360.57 399.72C355.47 404.45 350.23 406.39 342.38 406.39C342.08 406.39 340.59 406.39 337.9 406.39L337.9 396.81L337.9 387.24Z" id="byJt01W0A"></path><path d="M235.01 252.15L249.52 252.15L264.04 252.15L264.04 260.56L264.04 268.96L256.91 268.96L249.78 268.96L249.78 320.66L249.78 372.36L256.91 372.36L264.04 372.36L264.04 380.51L264.04 388.66L249.52 388.66L235.01 388.66L235.01 320.41L235.01 252.15Z" id="b28uZ8kDqE"></path><path d="M385.78 371.6L392.91 371.6L400.04 371.6L400.04 319.9L400.04 268.2L392.91 268.2L385.78 268.2L385.78 259.79L385.78 251.39L400.3 251.39L414.81 251.39L414.81 319.64L414.81 387.9L400.3 387.9L385.78 387.9L385.78 379.75L385.78 371.6Z" id="h4DfdRrfKM"></path><path d="M210.86 358.05L205.41 340.63L199.91 323.21C203.21 311.14 205.04 304.43 205.41 303.09C208.42 291.98 211.01 282.82 211.12 282.71C211.22 282.61 213.61 281.03 216.41 279.15C216.75 278.92 218.45 277.8 221.51 275.79C221.6 289.23 221.65 296.7 221.66 298.2C221.71 310.53 221.71 330.65 221.66 342.97C221.65 344.46 221.6 351.92 221.51 365.33L216.21 361.67L210.86 358.05Z" id="c1y1PpElIb"></path><path d="M428.06 274.46C428.94 275.04 429.44 275.37 429.53 275.43C439.06 281.54 438.75 281.29 439.52 283.99C439.93 285.41 442.42 294.53 445.07 304.26C445.39 305.44 447.01 311.35 449.91 321.99L444.41 339.41L438.96 356.83L433.51 360.55L428.06 364.26L428.06 319.34L428.06 274.46Z" id="g7jHb9BBC"></path></defs><g><g><g><use xlink:href="#a1xsUeuUkh" opacity="1" fill="#0e141f" fill-opacity="1"></use><g><use xlink:href="#a1xsUeuUkh" opacity="1" fill-opacity="0" stroke="#000000" stroke-width="1" stroke-opacity="1"></use></g></g><g><use xlink:href="#aU2v71b0D" opacity="1" fill="#172839" fill-opacity="1"></use></g><g><use xlink:href="#a1oxNUPwSg" opacity="1" fill="#172839" fill-opacity="1"></use></g><g><use xlink:href="#bgCgqx02I" opacity="1" fill="#44baed" fill-opacity="1"></use></g><g><use xlink:href="#a1b5B4UN4h" opacity="1" fill="#172839" fill-opacity="1"></use></g><g><use xlink:href="#b1jl2NH3uG" opacity="1" fill="#44baed" fill-opacity="1"></use></g><g><use xlink:href="#b4LPJ95Qbh" opacity="1" fill="#172839" fill-opacity="1"></use></g><g><use xlink:href="#a4q4vX1jri" opacity="1" fill="#172839" fill-opacity="1"></use></g><g><use xlink:href="#hBqTsY55W" opacity="1" fill="#44baed" fill-opacity="1"></use></g><g><use xlink:href="#a3PQHvhMi" opacity="1" fill="#44baed" fill-opacity="1"></use></g><g><use xlink:href="#d88xop7l1j" opacity="1" fill="#172839" fill-opacity="1"></use></g><g><use xlink:href="#bdLYOtrjH" opacity="1" fill="#44baed" fill-opacity="1"></use></g><g><use xlink:href="#d7VX1gXyqE" opacity="1" fill="#44baed" fill-opacity="1"></use></g><g><g><use xlink:href="#anphSwA3B" opacity="1" fill="#1e90ff" fill-opacity="1"></use><g><use xlink:href="#anphSwA3B" opacity="1" fill-opacity="0" stroke="#000000" stroke-width="1" stroke-opacity="0"></use></g></g><g><use xlink:href="#byJt01W0A" opacity="1" fill="#1e90ff" fill-opacity="1"></use><g><use xlink:href="#byJt01W0A" opacity="1" fill-opacity="0" stroke="#000000" stroke-width="1" stroke-opacity="0"></use></g></g><g><use xlink:href="#b28uZ8kDqE" opacity="1" fill="#1e90ff" fill-opacity="1"></use><g><use xlink:href="#b28uZ8kDqE" opacity="1" fill-opacity="0" stroke="#000000" stroke-width="1" stroke-opacity="0"></use></g></g><g><use xlink:href="#h4DfdRrfKM" opacity="1" fill="#1e90ff" fill-opacity="1"></use><g><use xlink:href="#h4DfdRrfKM" opacity="1" fill-opacity="0" stroke="#000000" stroke-width="1" stroke-opacity="0"></use></g></g><g><use xlink:href="#c1y1PpElIb" opacity="1" fill="#1e90ff" fill-opacity="1"></use><g><use xlink:href="#c1y1PpElIb" opacity="1" fill-opacity="0" stroke="#000000" stroke-width="1" stroke-opacity="0"></use></g></g><g><use xlink:href="#g7jHb9BBC" opacity="1" fill="#1e90ff" fill-opacity="1"></use><g><use xlink:href="#g7jHb9BBC" opacity="1" fill-opacity="0" stroke="#000000" stroke-width="1" stroke-opacity="0"></use></g></g></g></g></g></svg>